<svg id="Layer_1" data-name="Layer 1" xmlns="http://www.w3.org/2000/svg" viewBox="0 0 100 100"><defs><style>.cls-1{fill:#2b96cc;}.cls-2{fill:#fff;}</style></defs><title>Back Hover Icon</title><g id="Back_Hover" data-name="Back Hover"><path class="cls-1" d="M50,0A50,50,0,1,0,99.91,50,50,50,0,0,0,50,0Z"/><path class="cls-2" d="M57.05,67.34a2.94,2.94,0,0,1-1.75-.58L39.35,55a6,6,0,0,1,0-10L55.3,33.24A3,3,0,0,1,58.8,38l-16,11.76a.94.94,0,0,0-.26.27s.09.1.26.23L58.8,62a3,3,0,0,1-1.75,5.33Z"/></g></svg>