<svg id="Layer_1" data-name="Layer 1" xmlns="http://www.w3.org/2000/svg" viewBox="0 0 100 100"><defs><style>.cls-1{fill:#2b96cc;}.cls-2{fill:#fff;}</style></defs><title>Menu Icon</title><g id="Menu"><path class="cls-1" d="M50,0a50,50,0,1,0,50,50A50.06,50.06,0,0,0,50,0Zm0,95.58A45.58,45.58,0,1,1,95.58,50,45.64,45.64,0,0,1,50,95.58Z"/><circle class="cls-2" cx="50" cy="50" r="45.58" transform="translate(-7.36 91.35) rotate(-80.78)"/><path class="cls-1" d="M68.28,58.94H31.72a2.21,2.21,0,1,0,0,4.42H68.28a2.21,2.21,0,1,0,0-4.42Z"/><path class="cls-1" d="M68.28,47.79H31.72a2.21,2.21,0,1,0,0,4.42H68.28a2.21,2.21,0,1,0,0-4.42Z"/><path class="cls-1" d="M31.72,41.06H68.28a2.21,2.21,0,1,0,0-4.42H31.72a2.21,2.21,0,1,0,0,4.42Z"/></g></svg>