<svg id="Layer_1" data-name="Layer 1" xmlns="http://www.w3.org/2000/svg" viewBox="0 0 100 100"><defs><style>.cls-1{fill:#2b96cc;}.cls-2{fill:#fff;}</style></defs><title>No Button Icon</title><g id="No"><path class="cls-1" d="M50,0a50,50,0,1,0,50,50A50.06,50.06,0,0,0,50,0Zm0,96.05A46.05,46.05,0,1,1,96.05,50,46.1,46.1,0,0,1,50,96.05Z"/><circle class="cls-2" cx="50" cy="50" r="46.05"/><path class="cls-1" d="M54.89,50,68.1,36.79a3.46,3.46,0,1,0-4.89-4.89L50,45.11,36.79,31.9a3.46,3.46,0,0,0-4.89,4.89L45.11,50,31.9,63.21a3.46,3.46,0,1,0,4.89,4.89L50,54.89,63.21,68.1a3.46,3.46,0,1,0,4.89-4.89Z"/></g></svg>