<svg id="Layer_1" data-name="Layer 1" xmlns="http://www.w3.org/2000/svg" viewBox="0 0 100 100"><defs><style>.cls-1{fill:#2b96cc;}.cls-2{fill:#fff;}</style></defs><title>Refresh Hover Icon</title><g id="Refresh_Hover" data-name="Refresh Hover"><circle class="cls-1" cx="50" cy="50" r="50"/><path class="cls-2" d="M63,27.26a25.9,25.9,0,0,0-19.58-1.88,2.21,2.21,0,1,0,1.27,4.24A21.62,21.62,0,1,1,31.77,40.29c.09-.19.21-.36.32-.55l2.65,9.06a2.21,2.21,0,0,0,2.12,1.59,2.27,2.27,0,0,0,.62-.09A2.2,2.2,0,0,0,39,47.56L35.7,36.34a5.28,5.28,0,0,0-8.27-3l-9.74,6.45a2.21,2.21,0,1,0,2.45,3.69l7.63-5.06A26,26,0,1,0,63,27.26Z"/></g></svg>