<svg id="Layer_1" data-name="Layer 1" xmlns="http://www.w3.org/2000/svg" viewBox="0 0 100 100"><defs><style>.cls-1{fill:#2b96cc;}.cls-2{fill:#fff;}</style></defs><title>Refresh Icon</title><g id="Refresh"><path class="cls-1" d="M50,0a50,50,0,1,0,50,50A50.06,50.06,0,0,0,50,0Zm0,95.58A45.58,45.58,0,1,1,95.58,50,45.64,45.64,0,0,1,50,95.58Z"/><circle class="cls-2" cx="50" cy="50" r="45.58" transform="translate(-7.36 91.35) rotate(-80.78)"/><path class="cls-1" d="M63,27.26a25.9,25.9,0,0,0-19.58-1.88,2.21,2.21,0,1,0,1.27,4.24A21.62,21.62,0,1,1,31.77,40.29c.09-.19.21-.36.32-.55l2.65,9.06a2.21,2.21,0,0,0,2.12,1.59,2.27,2.27,0,0,0,.62-.09A2.2,2.2,0,0,0,39,47.56L35.7,36.34a5.28,5.28,0,0,0-8.27-3l-9.74,6.45a2.21,2.21,0,1,0,2.45,3.69l7.63-5.06A26,26,0,1,0,63,27.26Z"/></g></svg>