<svg id="Layer_1" data-name="Layer 1" xmlns="http://www.w3.org/2000/svg" viewBox="0 0 100 100"><defs><style>.cls-1{fill:#2b96cc;}.cls-2{fill:#fff;}</style></defs><title>Yes Button Icon</title><g id="Yes"><path class="cls-1" d="M50,0a50,50,0,1,0,50,50A50,50,0,0,0,50,0Zm0,96.06A46.06,46.06,0,1,1,96,50,46.09,46.09,0,0,1,50,96.06Z"/><path class="cls-2" d="M50,4A46.06,46.06,0,1,0,96,50,46.1,46.1,0,0,0,50,4Zm22.1,31.41L49,66.72a5.52,5.52,0,0,1-9.09,0L27.83,50.37a3.46,3.46,0,0,1,5.57-4.11l11,15,22.08-30a3.46,3.46,0,1,1,5.58,4.1Z"/><path class="cls-1" d="M72.08,35.36,49,66.72a5.52,5.52,0,0,1-9.09,0L27.83,50.37a3.46,3.46,0,0,1,5.57-4.11l11,15,22.08-30a3.46,3.46,0,1,1,5.58,4.1Z"/></g></svg>